<mxfile host="app.diagrams.net" agent="Mozilla/5.0 (Windows NT 10.0; Win64; x64) AppleWebKit/537.36 (KHTML, like Gecko) Chrome/135.0.0.0 Safari/537.36" version="26.0.11">
  <diagram name="第 1 页" id="yO9kTaUimBpitbpSiqBW">
    <mxGraphModel dx="1674" dy="738" grid="0" gridSize="10" guides="1" tooltips="1" connect="1" arrows="1" fold="1" page="1" pageScale="1" pageWidth="827" pageHeight="1169" math="1" shadow="0">
      <root>
        <mxCell id="0" />
        <mxCell id="1" parent="0" />
        <mxCell id="OHiCeLRjC_9lza5a5SpA-1" value="起点" style="ellipse;whiteSpace=wrap;html=1;aspect=fixed;" parent="1" vertex="1">
          <mxGeometry x="110" y="250" width="80" height="80" as="geometry" />
        </mxCell>
        <mxCell id="OHiCeLRjC_9lza5a5SpA-2" value="终点2" style="ellipse;whiteSpace=wrap;html=1;aspect=fixed;" parent="1" vertex="1">
          <mxGeometry x="610" y="350" width="80" height="80" as="geometry" />
        </mxCell>
        <mxCell id="OHiCeLRjC_9lza5a5SpA-3" value="终点1" style="ellipse;whiteSpace=wrap;html=1;aspect=fixed;" parent="1" vertex="1">
          <mxGeometry x="610" y="140" width="80" height="80" as="geometry" />
        </mxCell>
        <mxCell id="OHiCeLRjC_9lza5a5SpA-4" value="" style="curved=1;endArrow=classic;html=1;rounded=0;" parent="1" edge="1">
          <mxGeometry width="50" height="50" relative="1" as="geometry">
            <mxPoint x="190" y="290" as="sourcePoint" />
            <mxPoint x="310" y="290" as="targetPoint" />
            <Array as="points">
              <mxPoint x="280" y="340" />
              <mxPoint x="220" y="260" />
            </Array>
          </mxGeometry>
        </mxCell>
        <mxCell id="OHiCeLRjC_9lza5a5SpA-5" value="" style="endArrow=classic;html=1;rounded=0;" parent="1" edge="1">
          <mxGeometry width="50" height="50" relative="1" as="geometry">
            <mxPoint x="309" y="291" as="sourcePoint" />
            <mxPoint x="389" y="291" as="targetPoint" />
          </mxGeometry>
        </mxCell>
        <mxCell id="OHiCeLRjC_9lza5a5SpA-6" value="" style="curved=1;endArrow=classic;html=1;rounded=0;entryX=0;entryY=0.5;entryDx=0;entryDy=0;" parent="1" target="OHiCeLRjC_9lza5a5SpA-3" edge="1">
          <mxGeometry width="50" height="50" relative="1" as="geometry">
            <mxPoint x="440" y="280" as="sourcePoint" />
            <mxPoint x="470" y="240" as="targetPoint" />
            <Array as="points">
              <mxPoint x="460" y="260" />
              <mxPoint x="420" y="180" />
            </Array>
          </mxGeometry>
        </mxCell>
        <mxCell id="OHiCeLRjC_9lza5a5SpA-7" value="" style="endArrow=classic;html=1;rounded=0;entryX=0;entryY=0.5;entryDx=0;entryDy=0;" parent="1" target="OHiCeLRjC_9lza5a5SpA-2" edge="1">
          <mxGeometry width="50" height="50" relative="1" as="geometry">
            <mxPoint x="430" y="310" as="sourcePoint" />
            <mxPoint x="380" y="420" as="targetPoint" />
            <Array as="points">
              <mxPoint x="430" y="390" />
            </Array>
          </mxGeometry>
        </mxCell>
        <mxCell id="OHiCeLRjC_9lza5a5SpA-8" value="" style="endArrow=classic;html=1;rounded=0;" parent="1" edge="1">
          <mxGeometry width="50" height="50" relative="1" as="geometry">
            <mxPoint x="390" y="290" as="sourcePoint" />
            <mxPoint x="440" y="280" as="targetPoint" />
          </mxGeometry>
        </mxCell>
        <mxCell id="OHiCeLRjC_9lza5a5SpA-9" value="" style="endArrow=classic;html=1;rounded=0;" parent="1" edge="1">
          <mxGeometry width="50" height="50" relative="1" as="geometry">
            <mxPoint x="390" y="290" as="sourcePoint" />
            <mxPoint x="430" y="310" as="targetPoint" />
          </mxGeometry>
        </mxCell>
        <mxCell id="OHiCeLRjC_9lza5a5SpA-12" value="" style="group" parent="1" vertex="1" connectable="0">
          <mxGeometry x="530" y="351" width="20" height="40" as="geometry" />
        </mxCell>
        <mxCell id="OHiCeLRjC_9lza5a5SpA-10" value="" style="ellipse;whiteSpace=wrap;html=1;aspect=fixed;fillColor=#FF0000;" parent="OHiCeLRjC_9lza5a5SpA-12" vertex="1">
          <mxGeometry width="20" height="20" as="geometry" />
        </mxCell>
        <mxCell id="OHiCeLRjC_9lza5a5SpA-11" value="" style="endArrow=none;html=1;rounded=0;entryX=0.5;entryY=1;entryDx=0;entryDy=0;" parent="OHiCeLRjC_9lza5a5SpA-12" target="OHiCeLRjC_9lza5a5SpA-10" edge="1">
          <mxGeometry width="50" height="50" relative="1" as="geometry">
            <mxPoint x="10" y="40" as="sourcePoint" />
            <mxPoint x="20" y="30" as="targetPoint" />
          </mxGeometry>
        </mxCell>
        <mxCell id="OHiCeLRjC_9lza5a5SpA-17" value="" style="group" parent="1" vertex="1" connectable="0">
          <mxGeometry x="572" y="350" width="20" height="40" as="geometry" />
        </mxCell>
        <mxCell id="OHiCeLRjC_9lza5a5SpA-18" value="" style="ellipse;whiteSpace=wrap;html=1;aspect=fixed;fillColor=#00994D;" parent="OHiCeLRjC_9lza5a5SpA-17" vertex="1">
          <mxGeometry width="20" height="20" as="geometry" />
        </mxCell>
        <mxCell id="OHiCeLRjC_9lza5a5SpA-19" value="" style="endArrow=none;html=1;rounded=0;entryX=0.5;entryY=1;entryDx=0;entryDy=0;" parent="OHiCeLRjC_9lza5a5SpA-17" target="OHiCeLRjC_9lza5a5SpA-18" edge="1">
          <mxGeometry width="50" height="50" relative="1" as="geometry">
            <mxPoint x="10" y="40" as="sourcePoint" />
            <mxPoint x="20" y="30" as="targetPoint" />
          </mxGeometry>
        </mxCell>
        <mxCell id="OHiCeLRjC_9lza5a5SpA-20" value="" style="group" parent="1" vertex="1" connectable="0">
          <mxGeometry x="530" y="141" width="20" height="40" as="geometry" />
        </mxCell>
        <mxCell id="OHiCeLRjC_9lza5a5SpA-21" value="" style="ellipse;whiteSpace=wrap;html=1;aspect=fixed;fillColor=#FF0000;" parent="OHiCeLRjC_9lza5a5SpA-20" vertex="1">
          <mxGeometry width="20" height="20" as="geometry" />
        </mxCell>
        <mxCell id="OHiCeLRjC_9lza5a5SpA-22" value="" style="endArrow=none;html=1;rounded=0;entryX=0.5;entryY=1;entryDx=0;entryDy=0;" parent="OHiCeLRjC_9lza5a5SpA-20" target="OHiCeLRjC_9lza5a5SpA-21" edge="1">
          <mxGeometry width="50" height="50" relative="1" as="geometry">
            <mxPoint x="10" y="40" as="sourcePoint" />
            <mxPoint x="20" y="30" as="targetPoint" />
          </mxGeometry>
        </mxCell>
        <mxCell id="OHiCeLRjC_9lza5a5SpA-23" value="" style="group" parent="1" vertex="1" connectable="0">
          <mxGeometry x="572" y="140" width="20" height="40" as="geometry" />
        </mxCell>
        <mxCell id="OHiCeLRjC_9lza5a5SpA-24" value="" style="ellipse;whiteSpace=wrap;html=1;aspect=fixed;fillColor=#00994D;" parent="OHiCeLRjC_9lza5a5SpA-23" vertex="1">
          <mxGeometry width="20" height="20" as="geometry" />
        </mxCell>
        <mxCell id="OHiCeLRjC_9lza5a5SpA-25" value="" style="endArrow=none;html=1;rounded=0;entryX=0.5;entryY=1;entryDx=0;entryDy=0;" parent="OHiCeLRjC_9lza5a5SpA-23" target="OHiCeLRjC_9lza5a5SpA-24" edge="1">
          <mxGeometry width="50" height="50" relative="1" as="geometry">
            <mxPoint x="10" y="40" as="sourcePoint" />
            <mxPoint x="20" y="30" as="targetPoint" />
          </mxGeometry>
        </mxCell>
        <mxCell id="OHiCeLRjC_9lza5a5SpA-26" value="" style="ellipse;whiteSpace=wrap;html=1;aspect=fixed;fillColor=#00994D;" parent="1" vertex="1">
          <mxGeometry x="220" y="300" width="10" height="10" as="geometry" />
        </mxCell>
        <mxCell id="OHiCeLRjC_9lza5a5SpA-27" value="" style="ellipse;whiteSpace=wrap;html=1;aspect=fixed;fillColor=#FF0000;" parent="1" vertex="1">
          <mxGeometry x="200" y="290" width="10" height="10" as="geometry" />
        </mxCell>
        <mxCell id="OHiCeLRjC_9lza5a5SpA-29" value="" style="ellipse;whiteSpace=wrap;html=1;aspect=fixed;fillColor=#FF0000;" parent="1" vertex="1">
          <mxGeometry x="280" y="270" width="10" height="10" as="geometry" />
        </mxCell>
        <mxCell id="OHiCeLRjC_9lza5a5SpA-31" value="" style="ellipse;whiteSpace=wrap;html=1;aspect=fixed;fillColor=#00994D;" parent="1" vertex="1">
          <mxGeometry x="294" y="276" width="10" height="10" as="geometry" />
        </mxCell>
        <mxCell id="OHiCeLRjC_9lza5a5SpA-32" value="" style="ellipse;whiteSpace=wrap;html=1;aspect=fixed;fillColor=#00994D;" parent="1" vertex="1">
          <mxGeometry x="356" y="280" width="10" height="10" as="geometry" />
        </mxCell>
        <mxCell id="OHiCeLRjC_9lza5a5SpA-34" value="" style="ellipse;whiteSpace=wrap;html=1;aspect=fixed;fillColor=#FF0000;" parent="1" vertex="1">
          <mxGeometry x="340" y="281" width="10" height="10" as="geometry" />
        </mxCell>
        <mxCell id="OHiCeLRjC_9lza5a5SpA-35" value="&lt;div&gt;&lt;span style=&quot;background-color: transparent; color: light-dark(rgb(0, 0, 0), rgb(255, 255, 255));&quot;&gt;四台相同型号的汽车式起重机联合抬吊被吊物：&lt;/span&gt;&lt;/div&gt;&lt;div&gt;&lt;span style=&quot;background-color: transparent; color: light-dark(rgb(0, 0, 0), rgb(255, 255, 255));&quot;&gt;&lt;br&gt;&lt;/span&gt;&lt;/div&gt;&lt;div&gt;&lt;span style=&quot;background-color: transparent; color: light-dark(rgb(0, 0, 0), rgb(255, 255, 255));&quot;&gt;1、&lt;/span&gt;&lt;span style=&quot;background-color: transparent; color: light-dark(rgb(0, 0, 0), rgb(255, 255, 255));&quot;&gt;现在需要将吊物向正南方向平移.若四台起重机吊臂均转动&amp;nbsp; &amp;nbsp; 角,&lt;/span&gt;&lt;/div&gt;&lt;div style=&quot;&quot;&gt;(也就是回转操作.回转&amp;nbsp; &amp;nbsp;角),此时吊物会向南平移,同时吊绳&lt;span style=&quot;background-color: transparent; color: light-dark(rgb(0, 0, 0), rgb(255, 255, 255));&quot;&gt;会发生倾斜,&lt;/span&gt;&lt;/div&gt;&lt;div style=&quot;&quot;&gt;&lt;span style=&quot;background-color: transparent; color: light-dark(rgb(0, 0, 0), rgb(255, 255, 255));&quot;&gt;这种平移操作会加大吊绳受力产生一个多余&lt;/span&gt;&lt;span style=&quot;background-color: transparent; color: light-dark(rgb(0, 0, 0), rgb(255, 255, 255));&quot;&gt;的水平分力。&lt;/span&gt;&lt;/div&gt;&lt;div style=&quot;&quot;&gt;&lt;span style=&quot;background-color: transparent; color: light-dark(rgb(0, 0, 0), rgb(255, 255, 255));&quot;&gt;&lt;br&gt;&lt;/span&gt;&lt;/div&gt;&lt;div style=&quot;&quot;&gt;&lt;span style=&quot;background-color: transparent; color: light-dark(rgb(0, 0, 0), rgb(255, 255, 255));&quot;&gt;2、为了保证平移过程中吊绳始终垂直（在吊臂回转过程中，不让吊绳产生额外的拉力）,吊臂在回转操作的同时,&lt;/span&gt;&lt;/div&gt;&lt;div&gt;应该伸长吊臂,如下图了,吊物向南移动,吊臂末端应沿虚线&lt;/div&gt;&lt;div&gt;移动,保证吊绳垂直.&lt;/div&gt;&lt;div&gt;&lt;br&gt;&lt;/div&gt;&lt;div&gt;3、上图2的四台吊机是分布均匀,是理想中的站位位置,&lt;span style=&quot;background-color: transparent; color: light-dark(rgb(0, 0, 0), rgb(255, 255, 255));&quot;&gt;而实际情况中,各台吊机的站位可能稍微有点不准确（受地理环境限制）&lt;/span&gt;&lt;/div&gt;&lt;div&gt;&lt;br&gt;&lt;/div&gt;&lt;div&gt;4、当吊机不在理想的&lt;span style=&quot;background-color: transparent; color: light-dark(rgb(0, 0, 0), rgb(255, 255, 255));&quot;&gt;的坐标点上的情况下,要保证吊臂&lt;/span&gt;&lt;span style=&quot;background-color: transparent; color: light-dark(rgb(0, 0, 0), rgb(255, 255, 255));&quot;&gt;末端吊绳始终垂直吊物，并让吊物沿图所示平移,怎么去规划路径?&lt;/span&gt;&lt;/div&gt;" style="text;html=1;align=left;verticalAlign=middle;resizable=0;points=[];autosize=1;strokeColor=none;fillColor=none;" parent="1" vertex="1">
          <mxGeometry x="210" y="929" width="680" height="200" as="geometry" />
        </mxCell>
        <mxCell id="OHiCeLRjC_9lza5a5SpA-37" value="" style="endArrow=none;html=1;rounded=0;exitX=0;exitY=0;exitDx=0;exitDy=0;" parent="1" source="OHiCeLRjC_9lza5a5SpA-40" edge="1">
          <mxGeometry width="50" height="50" relative="1" as="geometry">
            <mxPoint x="80" y="656" as="sourcePoint" />
            <mxPoint x="190" y="526" as="targetPoint" />
          </mxGeometry>
        </mxCell>
        <mxCell id="OHiCeLRjC_9lza5a5SpA-39" value="" style="endArrow=none;html=1;rounded=0;" parent="1" edge="1">
          <mxGeometry width="50" height="50" relative="1" as="geometry">
            <mxPoint x="83" y="657" as="sourcePoint" />
            <mxPoint x="190" y="527" as="targetPoint" />
          </mxGeometry>
        </mxCell>
        <mxCell id="OHiCeLRjC_9lza5a5SpA-40" value="&lt;b&gt;&lt;span style=&quot;font-family: 宋体;&quot;&gt;&lt;font style=&quot;font-size: 9px;&quot;&gt;&lt;font face=&quot;宋体&quot;&gt;徐工&lt;/font&gt;&lt;font face=&quot;Calibri&quot;&gt;XCT25—3&lt;/font&gt;&lt;/font&gt;&lt;/span&gt;&lt;/b&gt;" style="rounded=0;whiteSpace=wrap;html=1;fillColor=light-dark(#FFFF99,#EDEDED);" parent="1" vertex="1">
          <mxGeometry x="70" y="656" width="60" height="20" as="geometry" />
        </mxCell>
        <mxCell id="OHiCeLRjC_9lza5a5SpA-41" value="" style="ellipse;whiteSpace=wrap;html=1;aspect=fixed;" parent="1" vertex="1">
          <mxGeometry x="70" y="676" width="20" height="20" as="geometry" />
        </mxCell>
        <mxCell id="OHiCeLRjC_9lza5a5SpA-42" value="" style="ellipse;whiteSpace=wrap;html=1;aspect=fixed;" parent="1" vertex="1">
          <mxGeometry x="104" y="676" width="20" height="20" as="geometry" />
        </mxCell>
        <mxCell id="OHiCeLRjC_9lza5a5SpA-43" value="" style="endArrow=none;html=1;rounded=0;" parent="1" edge="1">
          <mxGeometry width="50" height="50" relative="1" as="geometry">
            <mxPoint x="190" y="636" as="sourcePoint" />
            <mxPoint x="190" y="526" as="targetPoint" />
          </mxGeometry>
        </mxCell>
        <mxCell id="OHiCeLRjC_9lza5a5SpA-44" value="" style="endArrow=none;html=1;rounded=0;" parent="1" edge="1">
          <mxGeometry width="50" height="50" relative="1" as="geometry">
            <mxPoint x="70" y="756" as="sourcePoint" />
            <mxPoint x="170" y="636" as="targetPoint" />
          </mxGeometry>
        </mxCell>
        <mxCell id="OHiCeLRjC_9lza5a5SpA-45" value="" style="endArrow=none;html=1;rounded=0;" parent="1" edge="1">
          <mxGeometry width="50" height="50" relative="1" as="geometry">
            <mxPoint x="80" y="757" as="sourcePoint" />
            <mxPoint x="170" y="636" as="targetPoint" />
          </mxGeometry>
        </mxCell>
        <mxCell id="OHiCeLRjC_9lza5a5SpA-46" value="&lt;p class=&quot;MsoNormal&quot;&gt;&lt;b&gt;&lt;span style=&quot;font-family: 宋体;&quot;&gt;&lt;font style=&quot;font-size: 9px;&quot;&gt;&lt;font style=&quot;&quot; face=&quot;宋体&quot;&gt;徐工&lt;/font&gt;&lt;font style=&quot;&quot; face=&quot;Calibri&quot;&gt;XCT25—1&lt;/font&gt;&lt;/font&gt;&lt;/span&gt;&lt;/b&gt;&lt;/p&gt;" style="rounded=0;whiteSpace=wrap;html=1;fillColor=#FFFF99;" parent="1" vertex="1">
          <mxGeometry x="67" y="756" width="60" height="20" as="geometry" />
        </mxCell>
        <mxCell id="OHiCeLRjC_9lza5a5SpA-47" value="" style="ellipse;whiteSpace=wrap;html=1;aspect=fixed;" parent="1" vertex="1">
          <mxGeometry x="67" y="776" width="20" height="20" as="geometry" />
        </mxCell>
        <mxCell id="OHiCeLRjC_9lza5a5SpA-48" value="" style="ellipse;whiteSpace=wrap;html=1;aspect=fixed;" parent="1" vertex="1">
          <mxGeometry x="101" y="776" width="20" height="20" as="geometry" />
        </mxCell>
        <mxCell id="OHiCeLRjC_9lza5a5SpA-50" value="" style="endArrow=none;html=1;rounded=0;" parent="1" edge="1">
          <mxGeometry width="50" height="50" relative="1" as="geometry">
            <mxPoint x="363" y="656" as="sourcePoint" />
            <mxPoint x="260" y="526" as="targetPoint" />
          </mxGeometry>
        </mxCell>
        <mxCell id="OHiCeLRjC_9lza5a5SpA-51" value="" style="endArrow=none;html=1;rounded=0;exitX=0.75;exitY=0;exitDx=0;exitDy=0;" parent="1" source="OHiCeLRjC_9lza5a5SpA-52" edge="1">
          <mxGeometry width="50" height="50" relative="1" as="geometry">
            <mxPoint x="366" y="657" as="sourcePoint" />
            <mxPoint x="260" y="526" as="targetPoint" />
          </mxGeometry>
        </mxCell>
        <mxCell id="OHiCeLRjC_9lza5a5SpA-52" value="&lt;b&gt;&lt;span style=&quot;font-family: 宋体;&quot;&gt;&lt;font style=&quot;font-size: 9px;&quot;&gt;&lt;font face=&quot;宋体&quot;&gt;徐工&lt;/font&gt;&lt;font face=&quot;Calibri&quot;&gt;XCT25—4&lt;/font&gt;&lt;/font&gt;&lt;/span&gt;&lt;/b&gt;" style="rounded=0;whiteSpace=wrap;html=1;flipH=1;fillColor=#FFFF99;" parent="1" vertex="1">
          <mxGeometry x="309" y="656" width="60" height="20" as="geometry" />
        </mxCell>
        <mxCell id="OHiCeLRjC_9lza5a5SpA-53" value="" style="ellipse;whiteSpace=wrap;html=1;aspect=fixed;flipH=1;" parent="1" vertex="1">
          <mxGeometry x="309" y="676" width="20" height="20" as="geometry" />
        </mxCell>
        <mxCell id="OHiCeLRjC_9lza5a5SpA-54" value="" style="ellipse;whiteSpace=wrap;html=1;aspect=fixed;flipH=1;" parent="1" vertex="1">
          <mxGeometry x="343" y="676" width="20" height="20" as="geometry" />
        </mxCell>
        <mxCell id="OHiCeLRjC_9lza5a5SpA-55" value="" style="endArrow=none;html=1;rounded=0;" parent="1" edge="1">
          <mxGeometry width="50" height="50" relative="1" as="geometry">
            <mxPoint x="259" y="636" as="sourcePoint" />
            <mxPoint x="259" y="526" as="targetPoint" />
          </mxGeometry>
        </mxCell>
        <mxCell id="OHiCeLRjC_9lza5a5SpA-58" value="&lt;b&gt;&lt;span style=&quot;font-family: 宋体;&quot;&gt;&lt;font style=&quot;font-size: 9px;&quot;&gt;&lt;font face=&quot;宋体&quot;&gt;徐工&lt;/font&gt;&lt;font face=&quot;Calibri&quot;&gt;XCT25—2&lt;/font&gt;&lt;/font&gt;&lt;/span&gt;&lt;/b&gt;" style="rounded=0;whiteSpace=wrap;html=1;flipH=1;fillColor=#FFFF99;" parent="1" vertex="1">
          <mxGeometry x="303" y="756" width="60" height="20" as="geometry" />
        </mxCell>
        <mxCell id="OHiCeLRjC_9lza5a5SpA-59" value="" style="ellipse;whiteSpace=wrap;html=1;aspect=fixed;flipH=1;" parent="1" vertex="1">
          <mxGeometry x="309" y="776" width="20" height="20" as="geometry" />
        </mxCell>
        <mxCell id="OHiCeLRjC_9lza5a5SpA-60" value="" style="ellipse;whiteSpace=wrap;html=1;aspect=fixed;flipH=1;" parent="1" vertex="1">
          <mxGeometry x="343" y="776" width="20" height="20" as="geometry" />
        </mxCell>
        <mxCell id="OHiCeLRjC_9lza5a5SpA-62" value="" style="shape=parallelogram;perimeter=parallelogramPerimeter;whiteSpace=wrap;html=1;fixedSize=1;fillColor=#00994D;" parent="1" vertex="1">
          <mxGeometry x="170" y="636" width="90" height="100" as="geometry" />
        </mxCell>
        <mxCell id="OHiCeLRjC_9lza5a5SpA-49" value="" style="endArrow=none;html=1;rounded=0;" parent="1" edge="1">
          <mxGeometry width="50" height="50" relative="1" as="geometry">
            <mxPoint x="169" y="736" as="sourcePoint" />
            <mxPoint x="169" y="636" as="targetPoint" />
          </mxGeometry>
        </mxCell>
        <mxCell id="OHiCeLRjC_9lza5a5SpA-61" value="" style="endArrow=none;html=1;rounded=0;" parent="1" edge="1">
          <mxGeometry width="50" height="50" relative="1" as="geometry">
            <mxPoint x="239" y="736" as="sourcePoint" />
            <mxPoint x="239" y="626" as="targetPoint" />
          </mxGeometry>
        </mxCell>
        <mxCell id="OHiCeLRjC_9lza5a5SpA-57" value="" style="endArrow=none;html=1;rounded=0;" parent="1" edge="1">
          <mxGeometry width="50" height="50" relative="1" as="geometry">
            <mxPoint x="363" y="757" as="sourcePoint" />
            <mxPoint x="240" y="626" as="targetPoint" />
          </mxGeometry>
        </mxCell>
        <mxCell id="OHiCeLRjC_9lza5a5SpA-56" value="" style="endArrow=none;html=1;rounded=0;" parent="1" edge="1">
          <mxGeometry width="50" height="50" relative="1" as="geometry">
            <mxPoint x="350" y="756" as="sourcePoint" />
            <mxPoint x="240" y="626" as="targetPoint" />
          </mxGeometry>
        </mxCell>
        <mxCell id="OHiCeLRjC_9lza5a5SpA-63" value="" style="endArrow=classic;html=1;rounded=0;" parent="1" source="OHiCeLRjC_9lza5a5SpA-62" edge="1">
          <mxGeometry width="50" height="50" relative="1" as="geometry">
            <mxPoint x="200" y="866" as="sourcePoint" />
            <mxPoint x="190" y="816" as="targetPoint" />
          </mxGeometry>
        </mxCell>
        <mxCell id="OHiCeLRjC_9lza5a5SpA-65" value="" style="endArrow=classic;html=1;rounded=0;strokeWidth=2;dashed=1;" parent="1" edge="1">
          <mxGeometry width="50" height="50" relative="1" as="geometry">
            <mxPoint x="50" y="704" as="sourcePoint" />
            <mxPoint x="450" y="704" as="targetPoint" />
          </mxGeometry>
        </mxCell>
        <mxCell id="OHiCeLRjC_9lza5a5SpA-66" value="" style="endArrow=classic;html=1;rounded=0;strokeWidth=2;dashed=1;" parent="1" edge="1">
          <mxGeometry width="50" height="50" relative="1" as="geometry">
            <mxPoint x="183" y="857" as="sourcePoint" />
            <mxPoint x="253" y="497" as="targetPoint" />
          </mxGeometry>
        </mxCell>
        <mxCell id="OHiCeLRjC_9lza5a5SpA-67" value="&lt;font style=&quot;font-size: 18px;&quot;&gt;&lt;b&gt;东&lt;/b&gt;&lt;/font&gt;" style="text;html=1;align=center;verticalAlign=middle;resizable=0;points=[];autosize=1;strokeColor=none;fillColor=none;" parent="1" vertex="1">
          <mxGeometry x="10" y="686" width="40" height="40" as="geometry" />
        </mxCell>
        <mxCell id="OHiCeLRjC_9lza5a5SpA-68" value="&lt;span style=&quot;font-size: 18px;&quot;&gt;&lt;b&gt;南&lt;/b&gt;&lt;/span&gt;" style="text;html=1;align=center;verticalAlign=middle;resizable=0;points=[];autosize=1;strokeColor=none;fillColor=none;" parent="1" vertex="1">
          <mxGeometry x="160" y="856" width="40" height="40" as="geometry" />
        </mxCell>
        <mxCell id="OHiCeLRjC_9lza5a5SpA-69" value="&lt;font style=&quot;font-size: 18px;&quot;&gt;&lt;b&gt;西&lt;/b&gt;&lt;/font&gt;" style="text;html=1;align=center;verticalAlign=middle;resizable=0;points=[];autosize=1;strokeColor=none;fillColor=none;" parent="1" vertex="1">
          <mxGeometry x="443" y="685" width="40" height="40" as="geometry" />
        </mxCell>
        <mxCell id="OHiCeLRjC_9lza5a5SpA-70" value="&lt;font style=&quot;font-size: 18px;&quot;&gt;&lt;b&gt;北&lt;/b&gt;&lt;/font&gt;" style="text;html=1;align=center;verticalAlign=middle;resizable=0;points=[];autosize=1;strokeColor=none;fillColor=none;" parent="1" vertex="1">
          <mxGeometry x="234" y="456" width="40" height="40" as="geometry" />
        </mxCell>
        <mxCell id="OHiCeLRjC_9lza5a5SpA-71" value="" style="rounded=0;whiteSpace=wrap;html=1;fillColor=#00994D;strokeWidth=2;" parent="1" vertex="1">
          <mxGeometry x="687" y="611" width="70" height="130" as="geometry" />
        </mxCell>
        <mxCell id="OHiCeLRjC_9lza5a5SpA-72" value="" style="endArrow=none;html=1;rounded=0;entryX=0;entryY=0;entryDx=0;entryDy=0;strokeWidth=3;exitX=1;exitY=0.5;exitDx=0;exitDy=0;" parent="1" source="OHiCeLRjC_9lza5a5SpA-74" edge="1">
          <mxGeometry width="50" height="50" relative="1" as="geometry">
            <mxPoint x="597" y="612" as="sourcePoint" />
            <mxPoint x="687" y="612" as="targetPoint" />
          </mxGeometry>
        </mxCell>
        <mxCell id="OHiCeLRjC_9lza5a5SpA-74" value="&lt;b&gt;&lt;span style=&quot;font-family: 宋体;&quot;&gt;&lt;font style=&quot;font-size: 9px;&quot;&gt;&lt;font face=&quot;宋体&quot;&gt;徐工&lt;/font&gt;&lt;font face=&quot;Calibri&quot;&gt;XCT25—3&lt;/font&gt;&lt;/font&gt;&lt;/span&gt;&lt;/b&gt;" style="rounded=0;whiteSpace=wrap;html=1;fillColor=light-dark(#FFFF99,#EDEDED);" parent="1" vertex="1">
          <mxGeometry x="557" y="602" width="60" height="20" as="geometry" />
        </mxCell>
        <mxCell id="OHiCeLRjC_9lza5a5SpA-75" value="" style="endArrow=none;html=1;rounded=0;entryX=0;entryY=0;entryDx=0;entryDy=0;strokeWidth=3;exitX=1;exitY=0.5;exitDx=0;exitDy=0;" parent="1" source="OHiCeLRjC_9lza5a5SpA-76" edge="1">
          <mxGeometry width="50" height="50" relative="1" as="geometry">
            <mxPoint x="597" y="740" as="sourcePoint" />
            <mxPoint x="687" y="740" as="targetPoint" />
          </mxGeometry>
        </mxCell>
        <mxCell id="OHiCeLRjC_9lza5a5SpA-76" value="&lt;b&gt;&lt;span style=&quot;font-family: 宋体;&quot;&gt;&lt;font style=&quot;font-size: 9px;&quot;&gt;&lt;font face=&quot;宋体&quot;&gt;徐工&lt;/font&gt;&lt;font face=&quot;Calibri&quot;&gt;XCT25—1&lt;/font&gt;&lt;/font&gt;&lt;/span&gt;&lt;/b&gt;" style="rounded=0;whiteSpace=wrap;html=1;fillColor=light-dark(#FFFF99,#EDEDED);" parent="1" vertex="1">
          <mxGeometry x="557" y="731" width="60" height="20" as="geometry" />
        </mxCell>
        <mxCell id="OHiCeLRjC_9lza5a5SpA-77" value="&lt;b&gt;&lt;span style=&quot;font-family: 宋体;&quot;&gt;&lt;font style=&quot;font-size: 9px;&quot;&gt;&lt;font face=&quot;宋体&quot;&gt;徐工&lt;/font&gt;&lt;font face=&quot;Calibri&quot;&gt;XCT25—4&lt;/font&gt;&lt;/font&gt;&lt;/span&gt;&lt;/b&gt;" style="rounded=0;whiteSpace=wrap;html=1;fillColor=light-dark(#FFFF99,#EDEDED);" parent="1" vertex="1">
          <mxGeometry x="837" y="602" width="60" height="20" as="geometry" />
        </mxCell>
        <mxCell id="OHiCeLRjC_9lza5a5SpA-78" value="&lt;b&gt;&lt;span style=&quot;font-family: 宋体;&quot;&gt;&lt;font style=&quot;font-size: 9px;&quot;&gt;&lt;font face=&quot;宋体&quot;&gt;徐工&lt;/font&gt;&lt;font face=&quot;Calibri&quot;&gt;XCT25—2&lt;/font&gt;&lt;/font&gt;&lt;/span&gt;&lt;/b&gt;" style="rounded=0;whiteSpace=wrap;html=1;fillColor=light-dark(#FFFF99,#EDEDED);" parent="1" vertex="1">
          <mxGeometry x="837" y="731" width="60" height="20" as="geometry" />
        </mxCell>
        <mxCell id="OHiCeLRjC_9lza5a5SpA-79" value="" style="endArrow=none;html=1;rounded=0;entryX=0;entryY=0;entryDx=0;entryDy=0;strokeWidth=3;" parent="1" edge="1">
          <mxGeometry width="50" height="50" relative="1" as="geometry">
            <mxPoint x="757" y="740" as="sourcePoint" />
            <mxPoint x="837" y="740" as="targetPoint" />
          </mxGeometry>
        </mxCell>
        <mxCell id="OHiCeLRjC_9lza5a5SpA-80" value="" style="endArrow=none;html=1;rounded=0;entryX=0;entryY=0;entryDx=0;entryDy=0;strokeWidth=3;" parent="1" edge="1">
          <mxGeometry width="50" height="50" relative="1" as="geometry">
            <mxPoint x="757" y="612" as="sourcePoint" />
            <mxPoint x="837" y="612" as="targetPoint" />
          </mxGeometry>
        </mxCell>
        <mxCell id="OHiCeLRjC_9lza5a5SpA-84" value="" style="endArrow=classic;html=1;rounded=0;strokeWidth=2;dashed=1;" parent="1" edge="1">
          <mxGeometry width="50" height="50" relative="1" as="geometry">
            <mxPoint x="519" y="670" as="sourcePoint" />
            <mxPoint x="969" y="670" as="targetPoint" />
          </mxGeometry>
        </mxCell>
        <mxCell id="OHiCeLRjC_9lza5a5SpA-85" value="" style="endArrow=classic;html=1;rounded=0;strokeWidth=2;dashed=1;" parent="1" edge="1">
          <mxGeometry width="50" height="50" relative="1" as="geometry">
            <mxPoint x="717" y="831" as="sourcePoint" />
            <mxPoint x="717" y="521" as="targetPoint" />
          </mxGeometry>
        </mxCell>
        <mxCell id="OHiCeLRjC_9lza5a5SpA-86" value="&lt;font style=&quot;font-size: 18px;&quot;&gt;&lt;b&gt;东&lt;/b&gt;&lt;/font&gt;" style="text;html=1;align=center;verticalAlign=middle;resizable=0;points=[];autosize=1;strokeColor=none;fillColor=none;" parent="1" vertex="1">
          <mxGeometry x="487" y="650" width="40" height="40" as="geometry" />
        </mxCell>
        <mxCell id="OHiCeLRjC_9lza5a5SpA-87" value="&lt;span style=&quot;font-size: 18px;&quot;&gt;&lt;b&gt;南&lt;/b&gt;&lt;/span&gt;" style="text;html=1;align=center;verticalAlign=middle;resizable=0;points=[];autosize=1;strokeColor=none;fillColor=none;" parent="1" vertex="1">
          <mxGeometry x="697" y="831" width="40" height="40" as="geometry" />
        </mxCell>
        <mxCell id="OHiCeLRjC_9lza5a5SpA-88" value="&lt;span style=&quot;font-size: 18px;&quot;&gt;&lt;b&gt;西&lt;/b&gt;&lt;/span&gt;" style="text;html=1;align=center;verticalAlign=middle;resizable=0;points=[];autosize=1;strokeColor=none;fillColor=none;" parent="1" vertex="1">
          <mxGeometry x="967" y="650" width="40" height="40" as="geometry" />
        </mxCell>
        <mxCell id="OHiCeLRjC_9lza5a5SpA-89" value="&lt;font style=&quot;font-size: 18px;&quot;&gt;&lt;b&gt;北&lt;/b&gt;&lt;/font&gt;" style="text;html=1;align=center;verticalAlign=middle;resizable=0;points=[];autosize=1;strokeColor=none;fillColor=none;" parent="1" vertex="1">
          <mxGeometry x="753" y="499" width="40" height="40" as="geometry" />
        </mxCell>
        <mxCell id="OHiCeLRjC_9lza5a5SpA-90" value="&lt;b&gt;&lt;font style=&quot;font-size: 24px;&quot;&gt;图1 平视图&lt;/font&gt;&lt;/b&gt;" style="text;html=1;align=center;verticalAlign=middle;resizable=0;points=[];autosize=1;strokeColor=none;fillColor=none;" parent="1" vertex="1">
          <mxGeometry x="174" y="881" width="140" height="40" as="geometry" />
        </mxCell>
        <mxCell id="OHiCeLRjC_9lza5a5SpA-91" value="&lt;b&gt;&lt;font style=&quot;font-size: 24px;&quot;&gt;图2 俯视图&lt;/font&gt;&lt;/b&gt;" style="text;html=1;align=center;verticalAlign=middle;resizable=0;points=[];autosize=1;strokeColor=none;fillColor=none;" parent="1" vertex="1">
          <mxGeometry x="674" y="871" width="140" height="40" as="geometry" />
        </mxCell>
        <mxCell id="OHiCeLRjC_9lza5a5SpA-92" value="" style="endArrow=classic;html=1;rounded=0;exitX=0.614;exitY=0.992;exitDx=0;exitDy=0;exitPerimeter=0;entryX=0.85;entryY=-0.1;entryDx=0;entryDy=0;entryPerimeter=0;" parent="1" source="OHiCeLRjC_9lza5a5SpA-99" edge="1" target="OHiCeLRjC_9lza5a5SpA-87">
          <mxGeometry width="50" height="50" relative="1" as="geometry">
            <mxPoint x="777" y="841" as="sourcePoint" />
            <mxPoint x="726" y="821" as="targetPoint" />
          </mxGeometry>
        </mxCell>
        <mxCell id="OHiCeLRjC_9lza5a5SpA-93" value="被吊物水平平移&lt;div&gt;（朝着正南方向移动）&lt;/div&gt;" style="text;html=1;align=center;verticalAlign=middle;resizable=0;points=[];autosize=1;strokeColor=none;fillColor=none;" parent="1" vertex="1">
          <mxGeometry x="716" y="801" width="140" height="40" as="geometry" />
        </mxCell>
        <mxCell id="OHiCeLRjC_9lza5a5SpA-94" value="被吊物水平平移&lt;div&gt;（朝着正南方向移动）&lt;/div&gt;" style="text;html=1;align=center;verticalAlign=middle;resizable=0;points=[];autosize=1;strokeColor=none;fillColor=none;" parent="1" vertex="1">
          <mxGeometry x="185" y="780" width="140" height="40" as="geometry" />
        </mxCell>
        <mxCell id="OHiCeLRjC_9lza5a5SpA-95" value="" style="endArrow=none;html=1;rounded=0;strokeWidth=3;exitX=1;exitY=0.5;exitDx=0;exitDy=0;dashed=1;dashPattern=1 1;" parent="1" edge="1">
          <mxGeometry width="50" height="50" relative="1" as="geometry">
            <mxPoint x="616" y="742" as="sourcePoint" />
            <mxPoint x="687" y="781" as="targetPoint" />
          </mxGeometry>
        </mxCell>
        <mxCell id="OHiCeLRjC_9lza5a5SpA-96" value="" style="endArrow=none;html=1;rounded=0;strokeWidth=3;dashed=1;dashPattern=1 1;entryX=0;entryY=0.5;entryDx=0;entryDy=0;" parent="1" target="OHiCeLRjC_9lza5a5SpA-78" edge="1">
          <mxGeometry width="50" height="50" relative="1" as="geometry">
            <mxPoint x="757" y="781" as="sourcePoint" />
            <mxPoint x="697" y="791" as="targetPoint" />
          </mxGeometry>
        </mxCell>
        <mxCell id="OHiCeLRjC_9lza5a5SpA-97" value="" style="endArrow=none;html=1;rounded=0;strokeWidth=3;exitX=1;exitY=0.5;exitDx=0;exitDy=0;dashed=1;dashPattern=1 1;entryX=-0.043;entryY=0.331;entryDx=0;entryDy=0;entryPerimeter=0;" parent="1" source="OHiCeLRjC_9lza5a5SpA-74" target="OHiCeLRjC_9lza5a5SpA-71" edge="1">
          <mxGeometry width="50" height="50" relative="1" as="geometry">
            <mxPoint x="626" y="752" as="sourcePoint" />
            <mxPoint x="667" y="651" as="targetPoint" />
          </mxGeometry>
        </mxCell>
        <mxCell id="OHiCeLRjC_9lza5a5SpA-98" value="" style="endArrow=none;html=1;rounded=0;strokeWidth=3;dashed=1;dashPattern=1 1;entryX=0;entryY=0.5;entryDx=0;entryDy=0;exitX=1.014;exitY=0.331;exitDx=0;exitDy=0;exitPerimeter=0;" parent="1" source="OHiCeLRjC_9lza5a5SpA-71" target="OHiCeLRjC_9lza5a5SpA-77" edge="1">
          <mxGeometry width="50" height="50" relative="1" as="geometry">
            <mxPoint x="767" y="651" as="sourcePoint" />
            <mxPoint x="687" y="781" as="targetPoint" />
          </mxGeometry>
        </mxCell>
        <mxCell id="OHiCeLRjC_9lza5a5SpA-99" value="" style="rounded=0;whiteSpace=wrap;html=1;fillColor=#00994D;strokeColor=#FFFFFF;dashed=1;strokeWidth=2;" parent="1" vertex="1">
          <mxGeometry x="687" y="653" width="70" height="130" as="geometry" />
        </mxCell>
        <mxCell id="OHiCeLRjC_9lza5a5SpA-83" value="&lt;b&gt;&lt;font style=&quot;color: rgb(237, 237, 237);&quot;&gt;5&lt;/font&gt;&lt;/b&gt;&lt;div&gt;&lt;b&gt;&lt;font style=&quot;color: rgb(237, 237, 237);&quot;&gt;吨&lt;/font&gt;&lt;/b&gt;&lt;div&gt;&lt;b&gt;&lt;font style=&quot;color: rgb(237, 237, 237);&quot;&gt;重&lt;/font&gt;&lt;/b&gt;&lt;/div&gt;&lt;div&gt;&lt;b&gt;&lt;font style=&quot;color: rgb(237, 237, 237);&quot;&gt;的&lt;/font&gt;&lt;/b&gt;&lt;/div&gt;&lt;div&gt;&lt;b&gt;&lt;font style=&quot;color: rgb(237, 237, 237);&quot;&gt;被&lt;/font&gt;&lt;/b&gt;&lt;div&gt;&lt;b&gt;&lt;font style=&quot;color: rgb(237, 237, 237);&quot;&gt;吊&lt;/font&gt;&lt;/b&gt;&lt;/div&gt;&lt;div&gt;&lt;b&gt;&lt;font style=&quot;color: rgb(237, 237, 237);&quot;&gt;物&lt;/font&gt;&lt;/b&gt;&lt;/div&gt;&lt;/div&gt;&lt;/div&gt;" style="text;html=1;align=center;verticalAlign=middle;resizable=0;points=[];autosize=1;strokeColor=none;fillColor=none;" parent="1" vertex="1">
          <mxGeometry x="707" y="655" width="30" height="113" as="geometry" />
        </mxCell>
        <mxCell id="OHiCeLRjC_9lza5a5SpA-100" value="&lt;font style=&quot;font-size: 14px;&quot;&gt;$$\theta$$&lt;/font&gt;" style="text;html=1;align=center;verticalAlign=middle;resizable=0;points=[];autosize=1;strokeColor=none;fillColor=none;" parent="1" vertex="1">
          <mxGeometry x="495" y="958" width="90" height="30" as="geometry" />
        </mxCell>
        <mxCell id="OHiCeLRjC_9lza5a5SpA-101" value="&lt;font style=&quot;font-size: 12px;&quot;&gt;$$\theta$$&lt;/font&gt;" style="text;html=1;align=center;verticalAlign=middle;resizable=0;points=[];autosize=1;strokeColor=none;fillColor=none;" parent="1" vertex="1">
          <mxGeometry x="602" y="734" width="80" height="30" as="geometry" />
        </mxCell>
        <mxCell id="OHiCeLRjC_9lza5a5SpA-102" value="&lt;font style=&quot;font-size: 12px;&quot;&gt;$$\theta$$&lt;/font&gt;" style="text;html=1;align=center;verticalAlign=middle;resizable=0;points=[];autosize=1;strokeColor=none;fillColor=none;" parent="1" vertex="1">
          <mxGeometry x="607" y="606" width="80" height="30" as="geometry" />
        </mxCell>
        <mxCell id="OHiCeLRjC_9lza5a5SpA-104" value="&lt;font style=&quot;font-size: 12px;&quot;&gt;$$\theta$$&lt;/font&gt;" style="text;html=1;align=center;verticalAlign=middle;resizable=0;points=[];autosize=1;strokeColor=none;fillColor=none;" parent="1" vertex="1">
          <mxGeometry x="766" y="605" width="80" height="30" as="geometry" />
        </mxCell>
        <mxCell id="OHiCeLRjC_9lza5a5SpA-106" value="&lt;font style=&quot;font-size: 12px;&quot;&gt;$$\theta$$&lt;/font&gt;" style="text;html=1;align=center;verticalAlign=middle;resizable=0;points=[];autosize=1;strokeColor=none;fillColor=none;" parent="1" vertex="1">
          <mxGeometry x="767" y="733" width="80" height="30" as="geometry" />
        </mxCell>
        <mxCell id="OHiCeLRjC_9lza5a5SpA-108" value="&lt;font style=&quot;font-size: 14px;&quot;&gt;$$\theta$$&lt;/font&gt;" style="text;html=1;align=center;verticalAlign=middle;resizable=0;points=[];autosize=1;strokeColor=none;fillColor=none;" parent="1" vertex="1">
          <mxGeometry x="286" y="972" width="90" height="30" as="geometry" />
        </mxCell>
        <mxCell id="Og7FNkGgU9glhC27_onp-1" value="&lt;b&gt;&lt;font style=&quot;color: rgb(237, 237, 237); font-size: 11px;&quot;&gt;5&lt;/font&gt;&lt;/b&gt;&lt;div&gt;&lt;b&gt;&lt;font style=&quot;color: rgb(237, 237, 237);&quot;&gt;吨&lt;/font&gt;&lt;/b&gt;&lt;div&gt;&lt;b&gt;&lt;font style=&quot;color: rgb(237, 237, 237);&quot;&gt;重&lt;/font&gt;&lt;/b&gt;&lt;/div&gt;&lt;div&gt;&lt;b&gt;&lt;font style=&quot;color: rgb(237, 237, 237);&quot;&gt;的&lt;/font&gt;&lt;/b&gt;&lt;/div&gt;&lt;div&gt;&lt;b&gt;&lt;font style=&quot;color: rgb(237, 237, 237);&quot;&gt;被&lt;/font&gt;&lt;/b&gt;&lt;div&gt;&lt;b&gt;&lt;font style=&quot;color: rgb(237, 237, 237);&quot;&gt;吊&lt;/font&gt;&lt;/b&gt;&lt;/div&gt;&lt;div&gt;&lt;b&gt;&lt;font style=&quot;color: rgb(237, 237, 237);&quot;&gt;物&lt;/font&gt;&lt;/b&gt;&lt;/div&gt;&lt;/div&gt;&lt;/div&gt;" style="text;html=1;align=center;verticalAlign=middle;resizable=0;points=[];autosize=1;strokeColor=none;fillColor=none;rotation=10;" vertex="1" parent="1">
          <mxGeometry x="180" y="628" width="30" height="113" as="geometry" />
        </mxCell>
      </root>
    </mxGraphModel>
  </diagram>
</mxfile>
